<mxfile host="app.diagrams.net" modified="2020-10-09T08:50:38.028Z" agent="5.0 (Windows)" etag="PzFUHGhsNG2auepQRq9c" version="13.7.9" type="github">
  <diagram id="prtHgNgQTEPvFCAcTncT" name="Page-1">
    <mxGraphModel dx="868" dy="451" grid="1" gridSize="10" guides="1" tooltips="1" connect="1" arrows="1" fold="1" page="1" pageScale="1" pageWidth="827" pageHeight="1169" math="0" shadow="0">
      <root>
        <mxCell id="0" />
        <mxCell id="1" parent="0" />
        <mxCell id="q6DDdADLtbNGxBIIrUPH-15" value="" style="edgeStyle=orthogonalEdgeStyle;rounded=0;orthogonalLoop=1;jettySize=auto;html=1;" edge="1" parent="1" source="q6DDdADLtbNGxBIIrUPH-2" target="q6DDdADLtbNGxBIIrUPH-6">
          <mxGeometry relative="1" as="geometry" />
        </mxCell>
        <mxCell id="q6DDdADLtbNGxBIIrUPH-2" value="" style="rounded=1;whiteSpace=wrap;html=1;fillColor=#fff2cc;strokeColor=#d6b656;" vertex="1" parent="1">
          <mxGeometry x="160" y="160" width="120" height="60" as="geometry" />
        </mxCell>
        <mxCell id="q6DDdADLtbNGxBIIrUPH-4" value="" style="rounded=1;whiteSpace=wrap;html=1;fillColor=#fff2cc;strokeColor=#d6b656;" vertex="1" parent="1">
          <mxGeometry x="610" y="160" width="120" height="60" as="geometry" />
        </mxCell>
        <mxCell id="q6DDdADLtbNGxBIIrUPH-16" value="" style="edgeStyle=orthogonalEdgeStyle;rounded=0;orthogonalLoop=1;jettySize=auto;html=1;" edge="1" parent="1" source="q6DDdADLtbNGxBIIrUPH-5" target="q6DDdADLtbNGxBIIrUPH-4">
          <mxGeometry relative="1" as="geometry" />
        </mxCell>
        <mxCell id="q6DDdADLtbNGxBIIrUPH-5" value="" style="rounded=1;whiteSpace=wrap;html=1;fillColor=#fff2cc;strokeColor=#d6b656;" vertex="1" parent="1">
          <mxGeometry x="460" y="160" width="120" height="60" as="geometry" />
        </mxCell>
        <mxCell id="q6DDdADLtbNGxBIIrUPH-17" value="" style="edgeStyle=orthogonalEdgeStyle;rounded=0;orthogonalLoop=1;jettySize=auto;html=1;" edge="1" parent="1" source="q6DDdADLtbNGxBIIrUPH-6" target="q6DDdADLtbNGxBIIrUPH-5">
          <mxGeometry relative="1" as="geometry" />
        </mxCell>
        <mxCell id="q6DDdADLtbNGxBIIrUPH-6" value="" style="rounded=1;whiteSpace=wrap;html=1;fillColor=#fff2cc;strokeColor=#d6b656;" vertex="1" parent="1">
          <mxGeometry x="310" y="160" width="120" height="60" as="geometry" />
        </mxCell>
        <mxCell id="q6DDdADLtbNGxBIIrUPH-36" value="" style="edgeStyle=orthogonalEdgeStyle;rounded=0;orthogonalLoop=1;jettySize=auto;html=1;" edge="1" parent="1" source="q6DDdADLtbNGxBIIrUPH-7" target="q6DDdADLtbNGxBIIrUPH-12">
          <mxGeometry relative="1" as="geometry" />
        </mxCell>
        <mxCell id="q6DDdADLtbNGxBIIrUPH-53" style="edgeStyle=orthogonalEdgeStyle;rounded=0;orthogonalLoop=1;jettySize=auto;html=1;exitX=0.5;exitY=1;exitDx=0;exitDy=0;entryX=0.5;entryY=1;entryDx=0;entryDy=0;" edge="1" parent="1" source="q6DDdADLtbNGxBIIrUPH-7" target="q6DDdADLtbNGxBIIrUPH-6">
          <mxGeometry relative="1" as="geometry" />
        </mxCell>
        <mxCell id="q6DDdADLtbNGxBIIrUPH-7" value="" style="rounded=1;whiteSpace=wrap;html=1;fillColor=#fff2cc;strokeColor=#d6b656;" vertex="1" parent="1">
          <mxGeometry x="760" y="160" width="120" height="60" as="geometry" />
        </mxCell>
        <mxCell id="q6DDdADLtbNGxBIIrUPH-8" value="" style="rounded=1;whiteSpace=wrap;html=1;fillColor=#fff2cc;strokeColor=#d6b656;" vertex="1" parent="1">
          <mxGeometry x="300" y="400" width="120" height="60" as="geometry" />
        </mxCell>
        <mxCell id="q6DDdADLtbNGxBIIrUPH-32" value="" style="edgeStyle=orthogonalEdgeStyle;rounded=0;orthogonalLoop=1;jettySize=auto;html=1;" edge="1" parent="1" source="q6DDdADLtbNGxBIIrUPH-9" target="q6DDdADLtbNGxBIIrUPH-10">
          <mxGeometry relative="1" as="geometry" />
        </mxCell>
        <mxCell id="q6DDdADLtbNGxBIIrUPH-9" value="" style="rounded=1;whiteSpace=wrap;html=1;fillColor=#fff2cc;strokeColor=#d6b656;" vertex="1" parent="1">
          <mxGeometry x="610" y="320" width="120" height="60" as="geometry" />
        </mxCell>
        <mxCell id="q6DDdADLtbNGxBIIrUPH-33" value="" style="edgeStyle=orthogonalEdgeStyle;rounded=0;orthogonalLoop=1;jettySize=auto;html=1;" edge="1" parent="1" source="q6DDdADLtbNGxBIIrUPH-10" target="q6DDdADLtbNGxBIIrUPH-11">
          <mxGeometry relative="1" as="geometry" />
        </mxCell>
        <mxCell id="q6DDdADLtbNGxBIIrUPH-59" style="edgeStyle=orthogonalEdgeStyle;rounded=0;orthogonalLoop=1;jettySize=auto;html=1;exitX=0.5;exitY=1;exitDx=0;exitDy=0;entryX=0.5;entryY=1;entryDx=0;entryDy=0;" edge="1" parent="1" source="q6DDdADLtbNGxBIIrUPH-10" target="q6DDdADLtbNGxBIIrUPH-8">
          <mxGeometry relative="1" as="geometry" />
        </mxCell>
        <mxCell id="q6DDdADLtbNGxBIIrUPH-10" value="" style="rounded=1;whiteSpace=wrap;html=1;fillColor=#fff2cc;strokeColor=#d6b656;" vertex="1" parent="1">
          <mxGeometry x="460" y="320" width="120" height="60" as="geometry" />
        </mxCell>
        <mxCell id="q6DDdADLtbNGxBIIrUPH-11" value="" style="rounded=1;whiteSpace=wrap;html=1;fillColor=#fff2cc;strokeColor=#d6b656;" vertex="1" parent="1">
          <mxGeometry x="240" y="320" width="120" height="60" as="geometry" />
        </mxCell>
        <mxCell id="q6DDdADLtbNGxBIIrUPH-35" value="" style="edgeStyle=orthogonalEdgeStyle;rounded=0;orthogonalLoop=1;jettySize=auto;html=1;" edge="1" parent="1" source="q6DDdADLtbNGxBIIrUPH-12" target="q6DDdADLtbNGxBIIrUPH-9">
          <mxGeometry relative="1" as="geometry" />
        </mxCell>
        <mxCell id="q6DDdADLtbNGxBIIrUPH-12" value="" style="rounded=1;whiteSpace=wrap;html=1;fillColor=#fff2cc;strokeColor=#d6b656;" vertex="1" parent="1">
          <mxGeometry x="760" y="320" width="120" height="60" as="geometry" />
        </mxCell>
        <mxCell id="q6DDdADLtbNGxBIIrUPH-14" value="" style="edgeStyle=orthogonalEdgeStyle;rounded=0;orthogonalLoop=1;jettySize=auto;html=1;" edge="1" parent="1" source="q6DDdADLtbNGxBIIrUPH-13" target="q6DDdADLtbNGxBIIrUPH-2">
          <mxGeometry relative="1" as="geometry" />
        </mxCell>
        <mxCell id="q6DDdADLtbNGxBIIrUPH-13" value="" style="ellipse;whiteSpace=wrap;html=1;aspect=fixed;fillColor=#000000;" vertex="1" parent="1">
          <mxGeometry x="70" y="180" width="20" height="20" as="geometry" />
        </mxCell>
        <mxCell id="q6DDdADLtbNGxBIIrUPH-22" value="" style="endArrow=classic;html=1;exitX=1;exitY=0.5;exitDx=0;exitDy=0;entryX=0;entryY=0.5;entryDx=0;entryDy=0;" edge="1" parent="1" source="q6DDdADLtbNGxBIIrUPH-4" target="q6DDdADLtbNGxBIIrUPH-7">
          <mxGeometry width="50" height="50" relative="1" as="geometry">
            <mxPoint x="670" y="350" as="sourcePoint" />
            <mxPoint x="720" y="300" as="targetPoint" />
          </mxGeometry>
        </mxCell>
        <mxCell id="q6DDdADLtbNGxBIIrUPH-37" value="Connexion" style="text;html=1;strokeColor=none;fillColor=none;align=center;verticalAlign=middle;whiteSpace=wrap;rounded=0;" vertex="1" parent="1">
          <mxGeometry x="200" y="180" width="40" height="20" as="geometry" />
        </mxCell>
        <mxCell id="q6DDdADLtbNGxBIIrUPH-38" value="&lt;div&gt;une partie du paiement&lt;/div&gt;" style="text;html=1;strokeColor=none;fillColor=none;align=center;verticalAlign=middle;whiteSpace=wrap;rounded=0;" vertex="1" parent="1">
          <mxGeometry x="635" y="340" width="70" height="20" as="geometry" />
        </mxCell>
        <mxCell id="q6DDdADLtbNGxBIIrUPH-39" value="Confirmation" style="text;html=1;strokeColor=none;fillColor=none;align=center;verticalAlign=middle;whiteSpace=wrap;rounded=0;" vertex="1" parent="1">
          <mxGeometry x="500" y="340" width="40" height="20" as="geometry" />
        </mxCell>
        <mxCell id="q6DDdADLtbNGxBIIrUPH-40" value="Paiement" style="text;html=1;strokeColor=none;fillColor=none;align=center;verticalAlign=middle;whiteSpace=wrap;rounded=0;" vertex="1" parent="1">
          <mxGeometry x="280" y="340" width="40" height="20" as="geometry" />
        </mxCell>
        <mxCell id="q6DDdADLtbNGxBIIrUPH-41" value="Remboursement" style="text;html=1;strokeColor=none;fillColor=none;align=center;verticalAlign=middle;whiteSpace=wrap;rounded=0;" vertex="1" parent="1">
          <mxGeometry x="340" y="420" width="40" height="20" as="geometry" />
        </mxCell>
        <mxCell id="q6DDdADLtbNGxBIIrUPH-42" value="Validation" style="text;html=1;strokeColor=none;fillColor=none;align=center;verticalAlign=middle;whiteSpace=wrap;rounded=0;" vertex="1" parent="1">
          <mxGeometry x="800" y="180" width="40" height="20" as="geometry" />
        </mxCell>
        <mxCell id="q6DDdADLtbNGxBIIrUPH-43" value="Tarif" style="text;html=1;strokeColor=none;fillColor=none;align=center;verticalAlign=middle;whiteSpace=wrap;rounded=0;" vertex="1" parent="1">
          <mxGeometry x="650" y="180" width="40" height="20" as="geometry" />
        </mxCell>
        <mxCell id="q6DDdADLtbNGxBIIrUPH-44" value="Profil du tueur" style="text;html=1;strokeColor=none;fillColor=none;align=center;verticalAlign=middle;whiteSpace=wrap;rounded=0;" vertex="1" parent="1">
          <mxGeometry x="495" y="180" width="50" height="20" as="geometry" />
        </mxCell>
        <mxCell id="q6DDdADLtbNGxBIIrUPH-45" value="Catalogue du tueur" style="text;html=1;strokeColor=none;fillColor=none;align=center;verticalAlign=middle;whiteSpace=wrap;rounded=0;" vertex="1" parent="1">
          <mxGeometry x="340" y="180" width="60" height="20" as="geometry" />
        </mxCell>
        <mxCell id="q6DDdADLtbNGxBIIrUPH-51" value="Partage d&#39;infos" style="text;html=1;strokeColor=none;fillColor=none;align=center;verticalAlign=middle;whiteSpace=wrap;rounded=0;" vertex="1" parent="1">
          <mxGeometry x="800" y="340" width="40" height="20" as="geometry" />
        </mxCell>
        <mxCell id="q6DDdADLtbNGxBIIrUPH-54" value="NON" style="text;html=1;fillColor=none;align=center;verticalAlign=middle;whiteSpace=wrap;rounded=0;strokeColor=#000000;" vertex="1" parent="1">
          <mxGeometry x="570" y="240" width="40" height="20" as="geometry" />
        </mxCell>
        <mxCell id="q6DDdADLtbNGxBIIrUPH-55" value="OUI" style="text;html=1;fillColor=none;align=center;verticalAlign=middle;whiteSpace=wrap;rounded=0;strokeColor=#000000;" vertex="1" parent="1">
          <mxGeometry x="820" y="260" width="40" height="20" as="geometry" />
        </mxCell>
        <mxCell id="q6DDdADLtbNGxBIIrUPH-56" value="OUI" style="text;html=1;fillColor=none;align=center;verticalAlign=middle;whiteSpace=wrap;rounded=0;strokeColor=#000000;" vertex="1" parent="1">
          <mxGeometry x="399" y="350" width="30" height="20" as="geometry" />
        </mxCell>
        <mxCell id="q6DDdADLtbNGxBIIrUPH-57" value="NON" style="text;html=1;fillColor=none;align=center;verticalAlign=middle;whiteSpace=wrap;rounded=0;strokeColor=#000000;" vertex="1" parent="1">
          <mxGeometry x="520" y="410" width="30" height="20" as="geometry" />
        </mxCell>
      </root>
    </mxGraphModel>
  </diagram>
</mxfile>
